<?xml version="1.0" encoding="UTF-8" standalone="no"?>
<!-- Generated by GeneratePanel.py -->

<svg
   width="30.48mm"
   height="128.5mm"
   viewBox="0 0 30.48 128.5"
   version="1.1"
   id="svg1"
   xmlns="http://www.w3.org/2000/svg"
   xmlns:svg="http://www.w3.org/2000/svg">
  <defs
     id="defs1" />
  <g
     id="layer1">
    <path
       id="background"
       style="fill:#e6e6e6"
       d="M 0,0 H 30.48 V 128.5 H 0 Z" />
    <path
       id="rect4"
       d="m 18.5,90 h 10.48 v 28 H 18.5 Z" />
    <path
       id="rect6"
       d="M 18.5,61 H 28.98 V 89 H 18.5 Z" />
    <path
       id="rect8"
       style="fill:#ccccff"
       d="M 2,35 H 28.48 V 59 H 2 Z" />
    <path
       id="rect10"
       style="fill:#ccccff"
       d="M 2,35 H 12.48 V 78 H 2 Z" />
    <g
       aria-label="V per Hz"
       id="text12"
       style="font-weight:bold;font-size:4.53543px;text-anchor:middle">
      <path
         d="M 4.4306981,5.6936514 H 5.2877355 L 6.1647041,8.1341043 7.039458,5.6936514 H 7.8964955 L 6.6718399,9 H 5.6553536 Z"
         id="path43" />
      <path
         d="M 10.671348,8.6412401 V 9.9434056 H 9.878533 V 6.5196849 h 0.792815 v 0.363189 q 0.163878,-0.2170276 0.363189,-0.3188976 0.199311,-0.1040847 0.458415,-0.1040847 0.458416,0 0.752953,0.3654036 0.294538,0.363189 0.294538,0.9367618 0,0.5735729 -0.294538,0.9389764 -0.294537,0.363189 -0.752953,0.363189 -0.259104,0 -0.458415,-0.10187 Q 10.835226,8.8582677 10.671348,8.6412401 Z M 11.198415,7.035679 q -0.254675,0 -0.391978,0.1882382 -0.135089,0.1860237 -0.135089,0.5381398 0,0.3521162 0.135089,0.5403544 0.137303,0.1860236 0.391978,0.1860236 0.254675,0 0.387549,-0.1860236 0.135089,-0.1860236 0.135089,-0.5403544 0,-0.3543307 -0.135089,-0.5403543 Q 11.45309,7.035679 11.198415,7.035679 Z"
         id="path45" />
      <path
         d="m 15.600974,7.7531988 v 0.2258858 h -1.853592 q 0.02879,0.2790354 0.201525,0.4185532 0.172737,0.1395177 0.482776,0.1395177 0.250246,0 0.511565,-0.073081 0.263533,-0.075295 0.540354,-0.2258859 v 0.6112205 q -0.28125,0.1062993 -0.5625,0.1594489 -0.28125,0.055364 -0.5625,0.055364 -0.673228,0 -1.04749,-0.3410433 -0.372047,-0.3432579 -0.372047,-0.9611221 0,-0.6067913 0.365403,-0.9544784 0.367618,-0.347687 1.009843,-0.347687 0.584646,0 0.934547,0.3521162 0.352116,0.3521161 0.352116,0.941191 z m -0.81496,-0.2635335 q 0,-0.2258859 -0.132874,-0.363189 -0.13066,-0.1395177 -0.343258,-0.1395177 -0.230315,0 -0.374262,0.1306594 -0.143947,0.1284449 -0.17938,0.3720473 z"
         id="path47" />
      <path
         d="m 18.043642,7.1951279 q -0.104085,-0.04872 -0.20817,-0.070866 -0.10187,-0.02436 -0.205954,-0.02436 -0.305611,0 -0.471703,0.1970964 -0.163878,0.1948819 -0.163878,0.5602855 V 9 H 16.201122 V 6.5196849 h 0.792815 v 0.4074804 q 0.152805,-0.2436024 0.349902,-0.3543308 0.199311,-0.1129429 0.476131,-0.1129429 0.03986,0 0.08637,0.00443 0.0465,0.00221 0.135088,0.013287 z"
         id="path49" />
      <path
         d="m 20.052254,5.6936514 h 0.852608 v 1.2600887 h 1.257874 V 5.6936514 h 0.852608 V 9 H 22.162736 V 7.5981791 H 20.904862 V 9 h -0.852608 z"
         id="path51" />
      <path
         d="m 23.690787,6.5196849 h 2.163632 v 0.5536418 l -1.306594,1.3597441 h 1.306594 V 9 H 23.635423 V 8.4463582 l 1.306595,-1.3597441 h -1.251231 z"
         id="path53" />
    </g>
    <g
       aria-label="Manual Cal"
       id="text14"
       style="font-size:3.02362px;text-anchor:middle">
      <path
         d="m 7.1605215,16.795768 h 0.4443897 l 0.5625,1.5 0.5654528,-1.5 H 9.1772537 V 19 H 8.8864073 V 17.064469 L 8.3180018,18.57628 H 8.018297 L 7.4498915,17.064469 V 19 h -0.28937 z"
         id="path56" />
      <path
         d="m 10.508947,18.168799 q -0.329233,0 -0.456201,0.0753 -0.1269686,0.0753 -0.1269686,0.25689 0,0.144685 0.094489,0.230315 0.09596,0.08415 0.259842,0.08415 0.225886,0 0.361713,-0.159449 0.137303,-0.160925 0.137303,-0.426673 v -0.06053 z m 0.54183,-0.112205 V 19 h -0.271653 v -0.250984 q -0.09301,0.15059 -0.231791,0.222933 -0.13878,0.07087 -0.339567,0.07087 -0.2539374,0 -0.404528,-0.141732 -0.1491141,-0.143209 -0.1491141,-0.382382 0,-0.279036 0.1860236,-0.420768 0.1874995,-0.141732 0.5580705,-0.141732 h 0.380906 v -0.02658 q 0,-0.1875 -0.124016,-0.28937 -0.122539,-0.103347 -0.345472,-0.103347 -0.141733,0 -0.276083,0.03396 -0.1343504,0.03396 -0.2583662,0.10187 v -0.250984 q 0.1491142,-0.05758 0.2893702,-0.08563 0.140256,-0.02953 0.27313,-0.02953 0.35876,0 0.535925,0.186024 0.177165,0.186024 0.177165,0.563976 z"
         id="path58" />
      <path
         d="M 12.984832,18.001969 V 19 h -0.271653 v -0.989173 q 0,-0.234744 -0.09154,-0.351378 -0.09154,-0.116634 -0.274606,-0.116634 -0.21998,0 -0.346949,0.140256 -0.126968,0.140256 -0.126968,0.382382 V 19 h -0.27313 v -1.653543 h 0.27313 v 0.256889 q 0.09744,-0.149114 0.228838,-0.222933 0.132874,-0.07382 0.305611,-0.07382 0.284941,0 0.431102,0.177166 0.146161,0.175689 0.146161,0.518209 z"
         id="path60" />
      <path
         d="m 13.498612,18.347441 v -1.000984 h 0.271653 v 0.990649 q 0,0.234744 0.09154,0.352855 0.09154,0.116633 0.274606,0.116633 0.21998,0 0.346949,-0.140255 0.128445,-0.140256 0.128445,-0.382382 v -0.9375 h 0.271653 V 19 h -0.271653 v -0.253937 q -0.09892,0.150591 -0.230315,0.224409 -0.129921,0.07234 -0.302658,0.07234 -0.284941,0 -0.432578,-0.177165 -0.147638,-0.177166 -0.147638,-0.518209 z m 0.683563,-1.040847 z"
         id="path62" />
      <path
         d="m 16.194478,18.168799 q -0.329232,0 -0.4562,0.0753 -0.126969,0.0753 -0.126969,0.25689 0,0.144685 0.09449,0.230315 0.09596,0.08415 0.259843,0.08415 0.225886,0 0.361712,-0.159449 0.137303,-0.160925 0.137303,-0.426673 v -0.06053 z m 0.541831,-0.112205 V 19 h -0.271654 v -0.250984 q -0.09301,0.15059 -0.231791,0.222933 -0.138779,0.07087 -0.339567,0.07087 -0.253937,0 -0.404527,-0.141732 -0.149115,-0.143209 -0.149115,-0.382382 0,-0.279036 0.186024,-0.420768 0.1875,-0.141732 0.558071,-0.141732 h 0.380905 v -0.02658 q 0,-0.1875 -0.124015,-0.28937 -0.12254,-0.103347 -0.345473,-0.103347 -0.141732,0 -0.276082,0.03396 -0.134351,0.03396 -0.258367,0.10187 v -0.250984 q 0.149115,-0.05758 0.289371,-0.08563 0.140255,-0.02953 0.273129,-0.02953 0.35876,0 0.535926,0.186024 0.177165,0.186024 0.177165,0.563976 z"
         id="path64" />
      <path
         d="M 17.295857,16.702756 H 17.56751 V 19 h -0.271653 z"
         id="path66" />
      <path
         d="m 20.759439,16.965551 v 0.314469 q -0.15059,-0.140256 -0.32185,-0.209646 -0.169784,-0.06939 -0.361713,-0.06939 -0.377953,0 -0.57874,0.231792 -0.200787,0.230315 -0.200787,0.667322 0,0.435532 0.200787,0.667323 0.200787,0.230315 0.57874,0.230315 0.191929,0 0.361713,-0.06939 0.17126,-0.06939 0.32185,-0.209645 v 0.311516 q -0.156496,0.106299 -0.332185,0.159448 -0.174213,0.05315 -0.369094,0.05315 -0.500493,0 -0.788386,-0.30561 -0.287894,-0.307087 -0.287894,-0.837107 0,-0.531496 0.287894,-0.837106 0.287893,-0.307086 0.788386,-0.307086 0.197834,0 0.372047,0.05315 0.175689,0.05167 0.329232,0.156496 z"
         id="path68" />
      <path
         d="m 21.959734,18.168799 q -0.329232,0 -0.456201,0.0753 -0.126968,0.0753 -0.126968,0.25689 0,0.144685 0.09449,0.230315 0.09596,0.08415 0.259843,0.08415 0.225885,0 0.361712,-0.159449 0.137303,-0.160925 0.137303,-0.426673 v -0.06053 z m 0.541831,-0.112205 V 19 h -0.271654 v -0.250984 q -0.09301,0.15059 -0.231791,0.222933 -0.138779,0.07087 -0.339567,0.07087 -0.253937,0 -0.404527,-0.141732 -0.149115,-0.143209 -0.149115,-0.382382 0,-0.279036 0.186024,-0.420768 0.1875,-0.141732 0.558071,-0.141732 h 0.380905 v -0.02658 q 0,-0.1875 -0.124015,-0.28937 -0.12254,-0.103347 -0.345473,-0.103347 -0.141732,0 -0.276082,0.03396 -0.134351,0.03396 -0.258367,0.10187 v -0.250984 q 0.149115,-0.05758 0.28937,-0.08563 0.140256,-0.02953 0.27313,-0.02953 0.35876,0 0.535926,0.186024 0.177165,0.186024 0.177165,0.563976 z"
         id="path70" />
      <path
         d="m 23.061112,16.702756 h 0.271653 V 19 h -0.271653 z"
         id="path72" />
    </g>
    <g
       aria-label="Play C4,"
       id="text16"
       style="font-size:3.02362px;text-anchor:middle">
      <path
         d="m 9.7035825,37.040846 v 0.828248 h 0.3749995 q 0.20817,0 0.321851,-0.107775 0.113681,-0.107776 0.113681,-0.307087 0,-0.197834 -0.113681,-0.30561 -0.113681,-0.107776 -0.321851,-0.107776 z M 9.4053541,36.795768 h 0.6732279 q 0.370571,0 0.559548,0.168307 0.190452,0.166831 0.190452,0.490157 0,0.32628 -0.190452,0.493111 -0.188977,0.16683 -0.559548,0.16683 H 9.7035825 V 39 H 9.4053541 Z"
         id="path75" />
      <path
         d="m 11.21687,36.702756 h 0.271653 V 39 H 11.21687 Z"
         id="path77" />
      <path
         d="m 12.808405,38.168799 q -0.329232,0 -0.4562,0.07529 -0.126969,0.0753 -0.126969,0.25689 0,0.144685 0.09449,0.230315 0.09596,0.08415 0.259843,0.08415 0.225886,0 0.361712,-0.159449 0.137304,-0.160925 0.137304,-0.426673 v -0.06053 z m 0.541831,-0.112205 V 39 h -0.271653 v -0.250984 q -0.09301,0.15059 -0.231792,0.222933 -0.138779,0.07087 -0.339567,0.07087 -0.253937,0 -0.404527,-0.141732 -0.149114,-0.143209 -0.149114,-0.382382 0,-0.279036 0.186023,-0.420768 0.1875,-0.141732 0.558071,-0.141732 h 0.380906 v -0.02658 q 0,-0.1875 -0.124016,-0.28937 -0.12254,-0.103347 -0.345473,-0.103347 -0.141732,0 -0.276082,0.03396 -0.134351,0.03396 -0.258366,0.10187 v -0.250984 q 0.149114,-0.05758 0.28937,-0.08563 0.140255,-0.02953 0.27313,-0.02953 0.358759,0 0.535925,0.186024 0.177165,0.186024 0.177165,0.563976 z"
         id="path79" />
      <path
         d="m 14.597775,39.153543 q -0.115157,0.295276 -0.224409,0.385335 -0.109252,0.09006 -0.292323,0.09006 h -0.217027 v -0.227362 h 0.159448 q 0.112205,0 0.174213,-0.05315 0.06201,-0.05315 0.137303,-0.250984 l 0.04872,-0.124016 -0.6688,-1.626968 h 0.287894 l 0.516732,1.293307 0.516733,-1.293307 h 0.287893 z"
         id="path81" />
      <path
         d="m 18.322677,36.965551 v 0.314469 q -0.150591,-0.140256 -0.321851,-0.209646 -0.169783,-0.06939 -0.361712,-0.06939 -0.377953,0 -0.57874,0.231792 -0.200788,0.230315 -0.200788,0.667322 0,0.435532 0.200788,0.667323 0.200787,0.230315 0.57874,0.230315 0.191929,0 0.361712,-0.06939 0.17126,-0.06939 0.321851,-0.209645 v 0.311516 q -0.156496,0.106299 -0.332185,0.159448 -0.174213,0.05315 -0.369095,0.05315 -0.500492,0 -0.788385,-0.30561 -0.287894,-0.307087 -0.287894,-0.837107 0,-0.531496 0.287894,-0.837106 0.287893,-0.307086 0.788385,-0.307086 0.197835,0 0.372048,0.05315 0.175689,0.05167 0.329232,0.156496 z"
         id="path83" />
      <path
         d="m 19.629271,37.05561 -0.752952,1.176673 h 0.752952 z m -0.07825,-0.259842 h 0.375 v 1.436515 h 0.314469 v 0.248032 H 19.926023 V 39 h -0.296752 v -0.519685 h -0.995078 v -0.287894 z"
         id="path85" />
      <path
         d="m 20.764606,38.625 h 0.311516 v 0.253937 l -0.242126,0.472441 h -0.190453 l 0.121063,-0.472441 z"
         id="path87" />
    </g>
    <g
       aria-label="Press CAL"
       id="text18"
       style="font-size:3.02362px;text-anchor:middle">
      <path
         d="m 8.4434939,40.040846 v 0.828248 h 0.375 q 0.2081693,0 0.3218504,-0.107775 0.1136811,-0.107776 0.1136811,-0.307087 0,-0.197834 -0.1136811,-0.30561 Q 9.0266632,40.040846 8.8184939,40.040846 Z M 8.1452655,39.795768 h 0.6732284 q 0.3705709,0 0.5595472,0.168307 0.1904528,0.166831 0.1904528,0.490157 0,0.32628 -0.1904528,0.493111 -0.1889763,0.16683 -0.5595472,0.16683 h -0.375 V 42 H 8.1452655 Z"
         id="path90" />
      <path
         d="m 10.861801,40.600394 q -0.04577,-0.02658 -0.100394,-0.03839 -0.05315,-0.01329 -0.11811,-0.01329 -0.230315,0 -0.354331,0.150591 -0.122539,0.149114 -0.122539,0.429626 V 42 h -0.27313 v -1.653543 h 0.27313 v 0.256889 q 0.08563,-0.15059 0.222933,-0.222933 0.137303,-0.07382 0.333661,-0.07382 0.02805,0 0.06201,0.0044 0.03396,0.003 0.0753,0.01033 z"
         id="path92" />
      <path
         d="m 12.494675,41.105315 v 0.132874 h -1.249016 q 0.01772,0.280512 0.168307,0.42815 0.152067,0.146161 0.422244,0.146161 0.156496,0 0.302658,-0.03839 0.147638,-0.03839 0.292323,-0.115157 v 0.256889 q -0.146162,0.06201 -0.299705,0.09449 -0.153543,0.03248 -0.311516,0.03248 -0.395669,0 -0.62746,-0.230315 -0.230315,-0.230315 -0.230315,-0.623031 0,-0.406004 0.218504,-0.643701 0.21998,-0.239174 0.592027,-0.239174 0.333661,0 0.527067,0.215552 0.194882,0.214074 0.194882,0.583169 z m -0.271654,-0.07972 q -0.003,-0.222934 -0.125492,-0.355808 -0.121063,-0.132874 -0.32185,-0.132874 -0.227362,0 -0.364666,0.128445 -0.135826,0.128445 -0.156496,0.361713 z"
         id="path94" />
      <path
         d="m 13.994675,40.395177 v 0.25689 q -0.115158,-0.05906 -0.239173,-0.08858 -0.124016,-0.02953 -0.25689,-0.02953 -0.202264,0 -0.304134,0.06201 -0.100394,0.06201 -0.100394,0.186023 0,0.09449 0.07234,0.149114 0.07234,0.05315 0.290846,0.10187 l 0.09301,0.02067 q 0.28937,0.06201 0.410433,0.175689 0.12254,0.112204 0.12254,0.314468 0,0.230315 -0.183071,0.364666 -0.181595,0.13435 -0.500492,0.13435 -0.132874,0 -0.27756,-0.02657 -0.143208,-0.0251 -0.302657,-0.07677 v -0.280512 q 0.150591,0.07825 0.296752,0.11811 0.146161,0.03839 0.28937,0.03839 0.191929,0 0.295276,-0.06496 0.103346,-0.06644 0.103346,-0.186023 0,-0.110729 -0.07529,-0.169784 -0.07382,-0.05906 -0.32628,-0.113681 l -0.09449,-0.02215 q -0.252461,-0.05315 -0.364665,-0.162401 -0.112205,-0.110729 -0.112205,-0.302658 0,-0.233267 0.165354,-0.360236 0.165355,-0.126969 0.469489,-0.126969 0.15059,0 0.283464,0.02215 0.132874,0.02215 0.245079,0.06644 z"
         id="path96" />
      <path
         d="m 15.56997,40.395177 v 0.25689 q -0.115157,-0.05906 -0.239173,-0.08858 -0.124016,-0.02953 -0.25689,-0.02953 -0.202263,0 -0.304134,0.06201 -0.100393,0.06201 -0.100393,0.186023 0,0.09449 0.07234,0.149114 0.07234,0.05315 0.290847,0.10187 l 0.09301,0.02067 q 0.28937,0.06201 0.410433,0.175689 0.122539,0.112204 0.122539,0.314468 0,0.230315 -0.183071,0.364666 -0.181594,0.13435 -0.500492,0.13435 -0.132874,0 -0.277559,-0.02657 -0.143209,-0.0251 -0.302658,-0.07677 v -0.280512 q 0.150591,0.07825 0.296752,0.11811 0.146162,0.03839 0.28937,0.03839 0.19193,0 0.295276,-0.06496 0.103347,-0.06644 0.103347,-0.186023 0,-0.110729 -0.0753,-0.169784 -0.07382,-0.05906 -0.326279,-0.113681 l -0.09449,-0.02215 q -0.252461,-0.05315 -0.364666,-0.162401 -0.112205,-0.110729 -0.112205,-0.302658 0,-0.233267 0.165355,-0.360236 0.165354,-0.126969 0.469488,-0.126969 0.150591,0 0.283465,0.02215 0.132874,0.02215 0.245078,0.06644 z"
         id="path98" />
      <path
         d="m 18.714655,39.965551 v 0.314469 q -0.15059,-0.140256 -0.32185,-0.209646 -0.169783,-0.06939 -0.361712,-0.06939 -0.377953,0 -0.578741,0.231792 -0.200787,0.230315 -0.200787,0.667322 0,0.435532 0.200787,0.667323 0.200788,0.230315 0.578741,0.230315 0.191929,0 0.361712,-0.06939 0.17126,-0.06939 0.32185,-0.209645 v 0.311516 q -0.156496,0.106299 -0.332185,0.159448 -0.174212,0.05315 -0.369094,0.05315 -0.500492,0 -0.788386,-0.30561 -0.287894,-0.307087 -0.287894,-0.837107 0,-0.531496 0.287894,-0.837106 0.287894,-0.307086 0.788386,-0.307086 0.197835,0 0.372047,0.05315 0.175689,0.05167 0.329232,0.156496 z"
         id="path100" />
      <path
         d="m 19.911998,40.089567 -0.404528,1.096949 h 0.810532 z m -0.168307,-0.293799 h 0.33809 L 20.92184,42 H 20.611801 L 20.411014,41.434547 H 19.417411 L 19.216624,42 h -0.314469 z"
         id="path102" />
      <path
         d="m 21.24369,39.795768 h 0.298229 v 1.953248 h 1.073327 V 42 H 21.24369 Z"
         id="path104" />
    </g>
    <g
       aria-label="CAL"
       id="text20"
       style="font-size:3.02362px;text-anchor:middle">
      <path
         d="m 6.0152559,47.965551 v 0.314469 q -0.1505905,-0.140256 -0.3218504,-0.209646 -0.1697834,-0.06939 -0.3617126,-0.06939 -0.3779527,0 -0.5787401,0.231792 -0.2007874,0.230315 -0.2007874,0.667322 0,0.435532 0.2007874,0.667323 0.2007874,0.230315 0.5787401,0.230315 0.1919292,0 0.3617126,-0.06939 0.1712599,-0.06939 0.3218504,-0.209645 v 0.311516 q -0.1564961,0.106299 -0.332185,0.159448 -0.1742126,0.05315 -0.3690945,0.05315 -0.5004921,0 -0.7883858,-0.30561 -0.2878937,-0.307087 -0.2878937,-0.837107 0,-0.531496 0.2878937,-0.837106 0.2878937,-0.307086 0.7883858,-0.307086 0.1978346,0 0.3720472,0.05315 0.175689,0.05167 0.3292323,0.156496 z"
         id="path107" />
      <path
         d="M 7.2125983,48.089567 6.8080708,49.186516 H 7.6186023 Z M 7.0442912,47.795768 H 7.3823818 L 8.2224408,50 H 7.9124015 L 7.7116141,49.434547 H 6.7180117 L 6.5172243,50 H 6.2027558 Z"
         id="path109" />
      <path
         d="m 8.5442909,47.795768 h 0.2982283 v 1.953248 H 9.915846 V 50 H 8.5442909 Z"
         id="path111" />
    </g>
    <g
       aria-label="CAL'd"
       id="text22"
       style="font-size:3.02362px;text-anchor:middle">
      <path
         d="m 21.120009,47.965551 v 0.314469 q -0.15059,-0.140256 -0.32185,-0.209646 -0.169783,-0.06939 -0.361713,-0.06939 -0.377952,0 -0.57874,0.231792 -0.200787,0.230315 -0.200787,0.667322 0,0.435532 0.200787,0.667323 0.200788,0.230315 0.57874,0.230315 0.19193,0 0.361713,-0.06939 0.17126,-0.06939 0.32185,-0.209645 v 0.311516 q -0.156496,0.106299 -0.332185,0.159448 -0.174212,0.05315 -0.369094,0.05315 -0.500492,0 -0.788386,-0.30561 -0.287894,-0.307087 -0.287894,-0.837107 0,-0.531496 0.287894,-0.837106 0.287894,-0.307086 0.788386,-0.307086 0.197835,0 0.372047,0.05315 0.175689,0.05167 0.329232,0.156496 z"
         id="path114" />
      <path
         d="m 22.317352,48.089567 -0.404528,1.096949 h 0.810532 z m -0.168307,-0.293799 h 0.33809 L 23.327194,50 H 23.017155 L 22.816368,49.434547 H 21.822765 L 21.621978,50 h -0.314469 z"
         id="path116" />
      <path
         d="m 23.649044,47.795768 h 0.298229 v 1.953248 h 1.073326 V 50 h -1.371555 z"
         id="path118" />
      <path
         d="m 25.578671,47.795768 v 0.819389 h -0.250985 v -0.819389 z"
         id="path120" />
      <path
         d="m 27.241072,48.597441 v -0.894685 h 0.271653 V 50 h -0.271653 v -0.248031 q -0.08563,0.147637 -0.217028,0.21998 -0.129921,0.07087 -0.312992,0.07087 -0.299704,0 -0.488681,-0.239173 -0.1875,-0.239173 -0.1875,-0.628937 0,-0.389764 0.1875,-0.628937 0.188977,-0.239174 0.488681,-0.239174 0.183071,0 0.312992,0.07234 0.131398,0.07087 0.217028,0.218504 z m -0.925689,0.577264 q 0,0.299704 0.122539,0.470964 0.124016,0.169784 0.339567,0.169784 0.215551,0 0.339567,-0.169784 0.124016,-0.17126 0.124016,-0.470964 0,-0.299705 -0.124016,-0.469488 -0.124016,-0.17126 -0.339567,-0.17126 -0.215551,0 -0.339567,0.17126 -0.122539,0.169783 -0.122539,0.469488 z"
         id="path122" />
    </g>
    <g
       aria-label="V/Hz"
       id="text24"
       style="font-size:3.02362px;text-anchor:middle">
      <path
         d="M 4.3912402,64 3.5497047,61.795768 h 0.3115158 l 0.6983268,1.855807 0.6998031,-1.855807 H 5.5693898 L 4.7293307,64 Z"
         id="path125" />
      <path
         d="M 6.3622046,61.795768 H 6.6131889 L 5.8454723,64.280512 H 5.5944881 Z"
         id="path127" />
      <path
         d="m 6.9099409,61.795768 h 0.2982283 v 0.903543 H 8.2918306 V 61.795768 H 8.590059 V 64 H 8.2918306 V 62.950295 H 7.2081692 V 64 H 6.9099409 Z"
         id="path129" />
      <path
         d="m 9.0536417,62.346457 h 1.2903543 v 0.248031 L 9.3223424,63.782972 H 10.343996 V 64 H 9.0167322 V 63.751969 L 10.038386,62.563484 H 9.0536417 Z"
         id="path131" />
    </g>
    <g
       aria-label="V/OCT"
       id="text26"
       style="font-size:3.02362px;text-anchor:middle;fill:#ffffff">
      <path
         d="m 19.632559,64 -0.841536,-2.204232 h 0.311516 l 0.698327,1.855807 0.699803,-1.855807 h 0.310039 L 19.970649,64 Z"
         id="path134" />
      <path
         d="m 21.603523,61.795768 h 0.250984 l -0.767716,2.484744 h -0.250984 z"
         id="path136" />
      <path
         d="m 23.045944,61.998032 q -0.324803,0 -0.516732,0.242125 -0.190453,0.242126 -0.190453,0.659941 0,0.416339 0.190453,0.658465 0.191929,0.242126 0.516732,0.242126 0.324804,0 0.51378,-0.242126 0.190453,-0.242126 0.190453,-0.658465 0,-0.417815 -0.190453,-0.659941 -0.188976,-0.242125 -0.51378,-0.242125 z m 0,-0.242126 q 0.463583,0 0.741142,0.311515 0.277559,0.31004 0.277559,0.832677 0,0.521162 -0.277559,0.832678 -0.277559,0.310039 -0.741142,0.310039 -0.465059,0 -0.744094,-0.310039 -0.277559,-0.31004 -0.277559,-0.832678 0,-0.522637 0.277559,-0.832677 0.279035,-0.311515 0.744094,-0.311515 z"
         id="path138" />
      <path
         d="m 26.181771,61.965551 v 0.314469 q -0.15059,-0.140256 -0.32185,-0.209646 -0.169784,-0.06939 -0.361713,-0.06939 -0.377952,0 -0.57874,0.231792 -0.200787,0.230315 -0.200787,0.667322 0,0.435532 0.200787,0.667323 0.200788,0.230315 0.57874,0.230315 0.191929,0 0.361713,-0.06939 0.17126,-0.06939 0.32185,-0.209645 v 0.311516 q -0.156496,0.106299 -0.332185,0.159448 -0.174212,0.05315 -0.369094,0.05315 -0.500492,0 -0.788386,-0.30561 -0.287894,-0.307087 -0.287894,-0.837107 0,-0.531496 0.287894,-0.837106 0.287894,-0.307086 0.788386,-0.307086 0.197834,0 0.372047,0.05315 0.175689,0.05167 0.329232,0.156496 z"
         id="path140" />
      <path
         d="m 26.336791,61.795768 h 1.864665 v 0.250984 h -0.78248 V 64 h -0.299705 v -1.953248 h -0.78248 z"
         id="path142" />
    </g>
    <g
       aria-label="V/OCT"
       id="text28"
       style="font-size:3.02362px;text-anchor:middle">
      <path
         d="M 3.1525591,93 2.3110236,90.795768 h 0.3115158 l 0.6983268,1.855807 0.6998031,-1.855807 H 4.3307087 L 3.4906496,93 Z"
         id="path145" />
      <path
         d="M 5.1235235,90.795768 H 5.3745078 L 4.6067912,93.280512 H 4.355807 Z"
         id="path147" />
      <path
         d="m 6.5659448,90.998032 q -0.3248031,0 -0.5167323,0.242125 -0.1904527,0.242126 -0.1904527,0.659941 0,0.416339 0.1904527,0.658465 0.1919292,0.242126 0.5167323,0.242126 0.3248032,0 0.5137795,-0.242126 0.1904528,-0.242126 0.1904528,-0.658465 0,-0.417815 -0.1904528,-0.659941 Q 6.890748,90.998032 6.5659448,90.998032 Z m 0,-0.242126 q 0.4635827,0 0.7411418,0.311515 0.277559,0.31004 0.277559,0.832677 0,0.521162 -0.277559,0.832678 -0.2775591,0.310039 -0.7411418,0.310039 -0.465059,0 -0.7440945,-0.310039 -0.277559,-0.31004 -0.277559,-0.832678 0,-0.522637 0.277559,-0.832677 0.2790355,-0.311515 0.7440945,-0.311515 z"
         id="path149" />
      <path
         d="m 9.7017718,90.965551 v 0.314469 q -0.1505906,-0.140256 -0.3218504,-0.209646 -0.1697835,-0.06939 -0.3617126,-0.06939 -0.3779528,0 -0.5787402,0.231792 -0.2007874,0.230315 -0.2007874,0.667322 0,0.435532 0.2007874,0.667323 0.2007874,0.230315 0.5787402,0.230315 0.1919291,0 0.3617126,-0.06939 0.1712598,-0.06939 0.3218504,-0.209645 v 0.311516 q -0.1564961,0.106299 -0.3321851,0.159448 -0.1742126,0.05315 -0.3690945,0.05315 -0.5004921,0 -0.7883858,-0.30561 -0.2878937,-0.307087 -0.2878937,-0.837107 0,-0.531496 0.2878937,-0.837106 0.2878937,-0.307086 0.7883858,-0.307086 0.1978347,0 0.3720473,0.05315 0.175689,0.05167 0.3292323,0.156496 z"
         id="path151" />
      <path
         d="m 9.8567913,90.795768 h 1.8646657 v 0.250984 H 10.938976 V 93 H 10.639272 V 91.046752 H 9.8567913 Z"
         id="path153" />
    </g>
    <g
       aria-label="V/Hz"
       id="text30"
       style="font-size:3.02362px;text-anchor:middle;fill:#ffffff">
      <path
         d="m 20.87124,93 -0.841536,-2.204232 h 0.311516 l 0.698327,1.855807 0.699803,-1.855807 h 0.310039 L 21.20933,93 Z"
         id="path156" />
      <path
         d="m 22.842204,90.795768 h 0.250984 l -0.767716,2.484744 h -0.250984 z"
         id="path158" />
      <path
         d="m 23.38994,90.795768 h 0.298229 v 0.903543 h 1.083661 v -0.903543 h 0.298229 V 93 H 24.77183 V 91.950295 H 23.688169 V 93 H 23.38994 Z"
         id="path160" />
      <path
         d="m 25.533641,91.346457 h 1.290355 v 0.248031 l -1.021654,1.188484 h 1.021654 V 93 h -1.327264 v -0.248031 l 1.021653,-1.188485 h -0.984744 z"
         id="path162" />
    </g>
    <g
       aria-label="K.MISHAP"
       id="text32"
       style="font-style:italic;font-weight:bold;font-size:3.02362px;text-anchor:middle;fill:#0000ff">
      <path
         d="m 7.514114,119.79577 h 0.5684055 l -0.1609252,0.80462 0.9803149,-0.80462 h 0.659941 L 8.2906888,120.83957 9.2296651,122 H 8.518051 L 7.8152951,121.13189 7.6410825,122 H 7.072677 Z"
         id="path165" />
      <path
         d="M 9.5603739,121.42864 H 10.09187 L 9.9781888,122 h -0.531496 z"
         id="path167" />
      <path
         d="m 11.005748,119.79577 h 0.723425 l 0.265748,1.17962 0.741142,-1.17962 h 0.721949 L 13.016575,122 h -0.537402 l 0.32185,-1.6122 -0.74557,1.18848 H 11.695216 L 11.425039,120.3878 11.103189,122 h -0.538878 z"
         id="path169" />
      <path
         d="m 14.014606,119.79577 h 0.568406 L 14.141575,122 h -0.568406 z"
         id="path171" />
      <path
         d="m 16.658799,119.86516 -0.09301,0.46653 q -0.165354,-0.0812 -0.330708,-0.12254 -0.163878,-0.0413 -0.317422,-0.0413 -0.20374,0 -0.312992,0.0561 -0.107775,0.0561 -0.131398,0.17421 -0.01772,0.0886 0.03839,0.13878 0.0561,0.0487 0.221457,0.0841 l 0.231791,0.0487 q 0.352855,0.0738 0.47687,0.22441 0.125493,0.15059 0.07087,0.42815 -0.07382,0.36467 -0.32628,0.54331 -0.250984,0.17716 -0.695374,0.17716 -0.209646,0 -0.413386,-0.0399 -0.202264,-0.0399 -0.397145,-0.11811 l 0.09596,-0.47982 q 0.1875,0.1122 0.373524,0.16978 0.186023,0.0561 0.369094,0.0561 0.186024,0 0.296752,-0.062 0.112205,-0.062 0.134351,-0.17717 0.02067,-0.10334 -0.03543,-0.15945 -0.05462,-0.0561 -0.246555,-0.10039 l -0.211122,-0.0487 q -0.315945,-0.0709 -0.438484,-0.22589 -0.121063,-0.15502 -0.06939,-0.41781 0.06644,-0.32923 0.314469,-0.5064 0.248031,-0.17716 0.646653,-0.17716 0.181595,0 0.367618,0.028 0.1875,0.0266 0.380906,0.0812 z"
         id="path173" />
      <path
         d="m 17.317263,119.79577 h 0.568406 l -0.168307,0.84006 h 0.838582 l 0.168307,-0.84006 h 0.568406 L 18.85122,122 h -0.568406 l 0.1875,-0.93455 H 17.631732 L 17.444232,122 h -0.568406 z"
         id="path175" />
      <path
         d="m 20.823661,121.59843 h -0.88878 L 19.714901,122 h -0.571358 l 1.257874,-2.20423 h 0.677657 l 0.375,2.20423 h -0.571358 z m -0.66437,-0.40896 h 0.603838 l -0.125492,-0.87697 z"
         id="path177" />
      <path
         d="m 22.187834,119.79577 h 0.943406 q 0.420768,0 0.608268,0.1875 0.1875,0.18602 0.11811,0.53149 -0.06939,0.34695 -0.332185,0.53445 -0.261319,0.18603 -0.682087,0.18603 h -0.375 L 22.314803,122 h -0.568406 z m 0.485729,0.41191 -0.124016,0.61565 h 0.314468 q 0.165355,0 0.271654,-0.0797 0.106299,-0.0812 0.135827,-0.22884 0.02953,-0.14763 -0.04429,-0.22736 -0.07382,-0.0797 -0.239173,-0.0797 z"
         id="path179" />
    </g>
  </g>
</svg>
